<?xml version="1.0" standalone="no"?>
<!DOCTYPE svg PUBLIC "-//W3C//DTD SVG 20010904//EN"
 "http://www.w3.org/TR/2001/REC-SVG-20010904/DTD/svg10.dtd">
<svg version="1.0" xmlns="http://www.w3.org/2000/svg"
 width="100" height="100" viewBox="0 0 914.000000 914.000000"
 preserveAspectRatio="xMidYMid meet">

<g transform="translate(0.000000,914.000000) scale(0.100000,-0.100000)"
fill="#ffffff" stroke="none">
<path d="M4725 8993 c-134 -55 -376 -235 -561 -418 -369 -366 -661 -844 -801
-1310 -13 -44 -28 -89 -33 -100 -14 -34 -60 -261 -77 -383 -32 -233 -16 -570
36 -757 36 -129 101 -287 134 -330 4 -5 22 -31 40 -56 18 -25 49 -60 69 -78
l37 -32 17 38 c9 21 26 67 39 103 84 241 202 480 356 721 163 255 411 524 676
732 13 10 23 24 23 31 0 8 -16 53 -36 102 -85 208 -122 376 -131 589 -14 335
46 619 221 1043 25 61 46 114 46 117 0 8 -11 5 -55 -12z"/>
<path d="M6240 6749 c-447 -52 -822 -205 -1052 -430 -68 -67 -148 -173 -148
-198 0 -15 37 -22 190 -36 400 -35 781 -137 1110 -299 172 -83 206 -103 390
-225 84 -56 158 -101 165 -101 7 0 46 26 86 57 241 187 477 289 804 349 123
23 532 28 665 9 130 -19 260 -32 260 -26 0 26 -147 175 -260 262 -338 261
-728 448 -1167 558 -120 31 -342 71 -378 70 -11 -1 -54 4 -95 10 -88 12 -462
12 -570 0z"/>
<path d="M685 6173 c12 -130 90 -362 195 -579 160 -333 379 -635 652 -899 102
-99 125 -120 263 -230 256 -204 580 -374 877 -460 195 -57 281 -69 488 -69
169 0 194 3 290 28 101 26 190 67 190 86 0 12 -69 76 -119 109 -163 111 -498
431 -589 563 -9 13 -27 34 -40 48 -31 33 -225 324 -249 375 -11 22 -43 85 -70
140 -28 55 -70 146 -93 202 -23 56 -47 103 -53 106 -7 2 -55 0 -107 -5 -137
-14 -375 -3 -495 21 -193 40 -374 107 -564 211 -128 69 -239 147 -417 290 -82
66 -152 120 -157 120 -4 0 -5 -26 -2 -57z"/>
<path d="M4530 5424 c-50 -10 -126 -38 -162 -61 -21 -12 -42 -23 -48 -23 -18
0 -151 -132 -186 -185 -31 -48 -64 -123 -64 -148 0 -6 21 10 48 35 55 55 145
108 228 134 80 26 248 26 319 0 164 -58 269 -171 314 -338 18 -64 0 -192 -37
-273 -115 -245 -446 -350 -706 -224 -33 16 -61 29 -63 29 -12 0 27 -52 70 -93
106 -100 274 -167 420 -167 60 0 206 24 257 43 229 82 403 310 427 561 14 141
0 221 -61 345 -78 161 -175 255 -344 334 -66 31 -70 32 -227 33 -88 1 -171 0
-185 -2z"/>
<path d="M6045 4853 c4 -16 11 -44 16 -63 4 -19 15 -60 23 -90 36 -121 85
-363 102 -495 19 -147 25 -525 12 -660 -16 -162 -57 -375 -98 -520 -34 -117
-36 -112 98 -198 263 -170 476 -413 626 -714 31 -62 56 -116 56 -120 0 -4 7
-20 15 -36 25 -48 93 -267 125 -402 17 -71 36 -150 42 -174 l11 -44 20 24 c64
79 152 324 211 585 93 415 85 972 -20 1404 -69 282 -192 589 -322 805 -130
215 -338 443 -508 557 -149 100 -308 168 -392 168 -21 0 -23 -3 -17 -27z"/>
<path d="M5150 3521 c-30 -15 -107 -56 -170 -91 -288 -158 -648 -285 -955
-339 -160 -28 -217 -33 -447 -40 -137 -5 -250 -10 -252 -12 -2 -2 -23 -60 -46
-129 -83 -246 -210 -456 -392 -645 -208 -216 -371 -331 -756 -532 -40 -20 -72
-41 -72 -45 0 -12 96 -37 204 -55 132 -21 598 -14 756 11 546 87 1019 282
1440 595 358 265 613 591 724 923 57 174 75 388 32 388 -6 0 -36 -13 -66 -29z"/>
<path d="M4822 1669 c-66 -62 -97 -187 -68 -272 9 -26 16 -63 16 -82 0 -38
-53 -207 -76 -242 -8 -12 -14 -36 -14 -53 0 -48 -21 -120 -35 -120 -12 0 -35
63 -35 98 0 12 -6 39 -14 59 -13 35 -23 90 -57 303 -14 90 -17 100 -34 100
-23 0 -75 -108 -90 -190 -4 -19 -16 -61 -27 -93 -17 -47 -20 -71 -15 -132 7
-78 -18 -216 -49 -277 -18 -35 -18 -129 0 -154 15 -19 15 -19 52 1 43 23 64
75 64 162 0 28 7 87 15 130 8 43 15 112 15 153 0 81 12 117 30 90 13 -20 38
-106 50 -172 6 -29 14 -64 19 -78 5 -14 17 -60 26 -103 17 -80 41 -117 77
-117 23 0 34 23 42 90 4 30 16 91 26 135 10 44 22 96 26 115 3 19 21 71 38
115 21 52 38 122 49 200 19 125 24 149 53 253 17 57 17 66 3 90 -21 39 -39 37
-87 -9z"/>
<path d="M5468 1666 c-6 -12 -15 -23 -19 -26 -5 -3 -15 -21 -22 -40 -27 -64
12 -113 76 -96 32 8 65 79 47 101 -10 12 -10 18 0 30 19 23 5 42 -35 47 -29 3
-39 0 -47 -16z"/>
<path d="M5752 1627 c-31 -32 -32 -36 -32 -115 l0 -82 -40 -25 c-25 -16 -40
-33 -40 -45 0 -24 17 -26 41 -4 29 26 42 8 36 -50 -9 -76 8 -309 24 -335 12
-19 22 -22 69 -20 58 2 80 12 80 35 0 10 -7 13 -24 8 -42 -10 -50 21 -42 180
7 153 22 251 40 264 6 5 42 22 80 37 68 29 88 47 69 66 -11 11 -79 -2 -120
-23 -31 -15 -37 -6 -34 48 5 90 -49 121 -107 61z"/>
<path d="M4650 1455 c0 -8 5 -15 10 -15 6 0 10 7 10 15 0 8 -4 15 -10 15 -5 0
-10 -7 -10 -15z"/>
<path d="M5975 1441 c-3 -5 -1 -12 5 -16 5 -3 10 1 10 9 0 18 -6 21 -15 7z"/>
<path d="M5457 1393 c-13 -13 -8 -213 7 -241 7 -15 16 -67 20 -116 8 -107 24
-176 41 -176 10 0 13 46 12 218 -2 196 0 222 17 261 17 36 18 44 5 52 -16 10
-92 12 -102 2z"/>
<path d="M5250 1245 c-8 -9 -14 -52 -16 -107 -1 -50 -6 -108 -9 -129 -8 -47
-59 -119 -83 -119 -29 0 -62 38 -62 70 0 32 9 37 27 19 18 -18 33 0 33 39 0
25 -7 43 -20 55 -11 9 -20 23 -20 30 0 8 -9 24 -20 37 -15 17 -25 21 -47 16
-44 -12 -53 -33 -52 -121 2 -100 23 -181 53 -200 67 -44 143 -18 192 66 15 27
31 49 34 49 4 0 19 -13 35 -30 33 -35 50 -38 65 -10 8 16 6 22 -14 35 -13 9
-29 28 -35 43 -16 42 -31 139 -31 203 0 61 -10 78 -30 54z"/>
<path d="M3123 1150 c-24 -10 -44 -42 -50 -80 -2 -14 -6 -168 -8 -343 -2 -174
-9 -343 -14 -375 -15 -87 -25 -268 -14 -275 5 -3 46 3 92 14 69 16 91 26 130
60 25 23 87 61 137 85 50 23 96 50 103 58 22 26 26 93 7 121 -25 37 -55 32
-106 -20 -24 -25 -62 -51 -86 -59 -23 -8 -59 -26 -79 -39 -21 -14 -43 -23 -50
-21 -7 3 -28 -2 -45 -11 -18 -9 -34 -14 -37 -11 -9 9 19 250 52 456 37 227 48
288 62 320 20 46 18 102 -4 117 -19 15 -58 16 -90 3z"/>
<path d="M3675 789 c-22 -11 -54 -34 -71 -50 -35 -34 -86 -127 -77 -142 10
-16 92 -1 116 21 26 25 72 43 90 37 7 -3 19 -15 26 -27 12 -20 10 -25 -26 -57
-22 -20 -53 -44 -70 -53 -47 -24 -75 -86 -71 -156 l3 -57 56 -3 c53 -3 58 -1
105 41 44 39 53 43 92 40 l43 -3 -4 83 c-2 45 -8 92 -15 104 -7 12 -12 37 -12
55 0 40 -36 152 -53 166 -28 23 -91 23 -132 1z m113 -286 c4 -28 -99 -140
-117 -128 -25 15 -3 68 47 112 50 45 65 48 70 16z"/>
<path d="M3020 630 c0 -5 5 -10 11 -10 5 0 7 5 4 10 -3 6 -8 10 -11 10 -2 0
-4 -4 -4 -10z"/>
<path d="M3400 555 c0 -8 5 -15 10 -15 6 0 10 7 10 15 0 8 -4 15 -10 15 -5 0
-10 -7 -10 -15z"/>
</g>
</svg>
